<svg id="Live_type" data-name="Live type" xmlns="http://www.w3.org/2000/svg" viewBox="0 0 500 175"><defs><style>.cls-1{fill:#c1c7d0;}</style></defs><path class="cls-1" d="M250,1C112.68,1,1.37,39.72,1.37,87.51S112.68,174,250,174,498.63,135.3,498.63,87.51,387.31,1,250,1Zm0,165.58c-132.49,0-239.89-35.38-239.89-79S117.51,8.46,250,8.46,489.88,43.85,489.88,87.51,382.49,166.55,250,166.55Z"/><path class="cls-1" d="M195.67,76.48c6.47-.82,16-1.73,22.16-2.08,1.36-.08,1.64-.06,2.19.61a20.27,20.27,0,0,0,5.91,4.77,4.58,4.58,0,0,0,2.12.78,2.7,2.7,0,0,0,2.07-1,2,2,0,0,0,.47-2.24c-.37-.64-4.63-3-4.77-3.95-.09-.61.58-.74.58-.74a13.9,13.9,0,0,0,8.37-6.81c1.95-3.74,2.27-8.72-1.29-11.48-3.13-2.45-7.85-2.05-11.61,1.32a14.05,14.05,0,0,0-4.4,12.24c.09.72,0,1-.94,1-5.66.45-11.12.61-17.18.93-.41,0-.54-.24-.3-.53,7-12.12,17.41-20.76,29-29.28.76-.57.52-1.67.49-2.58,20.84,4.52,41,12.95,62.58,12.78,8.94-.08,17.49-1.44,25.67-5.93,7.19-3.91,10.11-7.55,10.33-11.31.17-2.62-1.64-4.26-4.22-3.7-21.85,5-42.67,5-64.4,2.33-24.66-3-48.32-9.14-72.85-9.14-3.69,0-7.39.14-11.13.45-23.71,2-46.27,15.35-46.32,35.62,0,10.27,7.28,18.61,18.61,18.24,13.29-.46,24.22-11.11,29.95-24.54,2.17-5.11-1.85-7.22-3.77-4.29a33.85,33.85,0,0,1-13.42,12c-6.27,3.06-12.95,2.23-15-2.85-2.85-7.18,3.08-17.9,16.61-23,19.55-7.24,40-2.45,59.67,1.25.27,0,1.32.58.4,1.05a57,57,0,0,0-12.39,8.14A101.62,101.62,0,0,0,196,57.14c-3.9,4.74-6.67,9-10.32,13.67a1.44,1.44,0,0,1-1.11.64C175.61,73,166.9,74,158.92,79.51c-1.64,1.14-2.35,3.15-1.36,4.71a3.09,3.09,0,0,0,4.38.46,26.85,26.85,0,0,1,15.92-5.61c.25,0,.37.07.45.22a.48.48,0,0,1-.09.41c-8.77,12.17-11,14.92-17.56,22.46a128,128,0,0,1-10.4,10.55c-15,13.91-31.08,13.67-36.87,5a14.83,14.83,0,0,1-.73-15.29c2.79-5.59,8.41-9.67,13.1-12.06,1.74-.89,2.24-3.12.5-5.15-1.1-1.31-3.79-1.55-5.79-1.18-6.13,1.13-13.39,5.77-17.66,11.35a31,31,0,0,0-6.43,22.39c1.46,15.41,14.12,24.29,28.51,24.18,11.46-.09,22.24-3.55,35.22-16.73,12.09-12.29,23.12-30.63,33.45-47.66C193.88,77,194.12,76.67,195.67,76.48Zm30.49-17.79a3,3,0,0,1,3.94-.46c1.15,1,.61,3.43-.56,5.14a9.46,9.46,0,0,1-5.39,3.88H224c-.33,0-.6-.23-.75-1A8.77,8.77,0,0,1,226.16,58.69Z"/><path class="cls-1" d="M404,58.15H390.71c-1,0-1.49.13-1.95,1-1.54,2.93-20.15,30.82-23.61,36.23-.57.82-1.29.7-1.38-.23-.34-3.22-3.12-6.91-7.5-8.68a18.91,18.91,0,0,0-10-1.15c-6.12.82-11.57,4-16.37,7.69-7.21,5.5-13.45,12.62-21.49,17.88C304,113.8,298,116.28,294,112.56c-3.64-3.38-3.23-10.88,2.33-16.69.6-.6,1.3-.09,1.19.45a7.36,7.36,0,0,0,2.12,7.07,7.9,7.9,0,0,0,8.88,1,11.59,11.59,0,0,0,6.18-8.91,10.16,10.16,0,0,0-9.32-11.57c-4.64-.32-9.08,1.29-13.4,4.87a25.5,25.5,0,0,0-5.28,5.8c-.47.65-1.17.72-1.14-.26.21-7.57-2.93-11.84-9.19-12-4.87-.11-10.06,2.52-14.12,5.76-4.43,3.56-8.32,8.28-12.48,12.73-.52.55-1,.52-1.11-.54-.13-5-1.4-9.89-3.72-13.34a3.08,3.08,0,0,0-4-1,29.48,29.48,0,0,0-4.72,2.82,2.67,2.67,0,0,0-.8,3A35.14,35.14,0,0,1,234.11,115c-2.79,6.61-8.23,12.55-14.61,14.58-4.2,1.32-8.58.67-11.29-3.06-3.71-5.14-2.21-14.1,3.32-21.52,4.9-6.55,12-10.7,19-13.39a1.1,1.1,0,0,0,.77-1.55c-.39-1.17-1-2.74-1.24-3.46-.66-1.72-2.46-2-4.68-1.76a39.6,39.6,0,0,0-14.31,4.8c-12,6.4-18,18.79-20.58,25.43a25.72,25.72,0,0,1-3.76,6.93c-1.88,2.36-4.25,4.52-8.58,8.32a1.55,1.55,0,0,0-.34,1.76c.44.9,2.7,4.08,3.32,4.38A2,2,0,0,0,183,136a44.67,44.67,0,0,0,8.42-7.52c.63-.74,1.26-.42,1.59.72A18.59,18.59,0,0,0,205,142c11,3.71,22.33-1.64,30.92-11,5.45-5.92,7.43-9.73,9.52-12.32C249,114.29,256,104.47,264.3,98.17c3.05-2.34,6.67-4.12,8.48-2.94,1.46,1,1.93,3.15-.41,7.4-8.49,15.5-21,33.72-23.27,38.13-.43.78,0,1.37.75,1.37,4.45,0,8.85,0,12.88,0a1.51,1.51,0,0,0,1.3-.81c6.52-10.2,12.65-19.9,19.22-29.94.37-.59.71-.13.72.13.15,2.32.71,5.51,2.1,7.6a11.38,11.38,0,0,0,9.9,5.56c3.11,0,4.69-.44,8-1.7a27.46,27.46,0,0,0,6.59-3.53c1-.69,1.16.46,1.13.64-1.51,8.09.36,17.68,8.41,21.66,9.62,4.74,20.2-1.92,26.3-7.95.58-.58,1.22-.52,1.29.73a11.07,11.07,0,0,0,3.07,7c5.1,5.11,15.39,3.08,25.72-4.92,6.63-5.11,13.58-12.35,19.84-20a.89.89,0,0,0,0-1.26c-1-1-2.33-2.13-3.28-3a1.18,1.18,0,0,0-1.43,0c-6.42,6.12-12.21,13.09-20.56,18.85-2.83,2-7.32,3.57-9.34.83-.79-1.06-.7-2.53.08-4.45,2.43-6.08,41-64.82,43-68.3C405.15,58.59,404.79,58.15,404,58.15ZM353.8,108.46c.08.46.66.89,1.23,1.09.21.07.32.23.1.69a59.09,59.09,0,0,1-5.2,8.61,32.38,32.38,0,0,1-6.62,7.14c-3,2.48-6.9,5.13-10.58,5.13a6.64,6.64,0,0,1-3.17-.76c-2-1-2.85-3.81-2.82-6.06.11-6.32,2.92-12.81,8.11-19.19,6.33-7.8,13.33-11.84,17.92-9.63,4.76,2.27,3.25,7.76,1.12,12.09A1.18,1.18,0,0,0,353.8,108.46Z"/></svg>