<svg id="Live_type" data-name="Live type" xmlns="http://www.w3.org/2000/svg" viewBox="0 0 468 100"><defs><style>.cls-1{fill:#c1c7d0;}</style></defs><path class="cls-1" d="M326.6,17.6A32.4,32.4,0,1,0,359,50a32.4,32.4,0,0,0-32.4-32.4M125.71,24.89a32.4,32.4,0,1,0,0,50.22v5.27h11.94V19.62H125.71v5.27m329.85-5.27v5.27a32.4,32.4,0,1,0,0,50.22v5.27H467.5V19.62H455.56M380.2,23.47c-6.95,4.45-13,12.31-13,26.26V80.38h13V49.73C380.2,29.57,401,30.67,401,30.67v-13s-11.26-.33-20.77,5.76m-181.07.61A32.4,32.4,0,0,0,147.29,50V80.38h13V50a19.44,19.44,0,1,1,38.88,0V80.38h13V50a32.34,32.34,0,0,0-13-25.92M273.59,6.16V24.89a32.4,32.4,0,1,0,0,50.22v5.27h11.94V.19h-6a6,6,0,0,0-6,6M32.9,17.6a32.21,32.21,0,0,0-20.46,7.29V19.62H.5V99.81h6a6,6,0,0,0,6-6V75.11A32.4,32.4,0,1,0,32.9,17.6m-.72,52.56A20.16,20.16,0,1,1,52.34,50,20.18,20.18,0,0,1,32.18,70.16m221.67,0A20.16,20.16,0,1,1,274,50a20.18,20.18,0,0,1-20.16,20.16m182,0A20.16,20.16,0,1,1,456,50a20.18,20.18,0,0,1-20.15,20.16M106,70.16A20.16,20.16,0,1,1,126.11,50,20.18,20.18,0,0,1,106,70.16m220.61-.72A19.44,19.44,0,1,1,346,50a19.47,19.47,0,0,1-19.44,19.44"/></svg>