<svg id="Live_type" data-name="Live type" xmlns="http://www.w3.org/2000/svg" viewBox="0 0 500 121"><defs><style>.cls-1{fill:#c1c7d0;}.cls-1,.cls-2,.cls-3{fill-rule:evenodd;}.cls-2{fill:#b3bac5;}.cls-3{fill:#a5adba;}</style></defs><path class="cls-1" d="M44,28.51h34.1c18.31,0,25.2,9.26,24.14,22.9C100.52,73.89,86.93,86.33,68.9,86.33H59.8c-2.47,0-4.14,1.63-4.81,6.07l-3.9,25.77c-.26,1.68-1.14,2.66-2.46,2.78H27.25c-2,0-2.73-1.54-2.21-4.88L38.1,33.4C38.63,30.08,40.44,28.51,44,28.51Z"/><path class="cls-2" d="M192.08,27c11.5,0,22.12,6.24,20.67,21.79-1.73,18.45-11.67,28.72-27.3,28.76H171.81c-2,0-2.91,1.6-3.43,4.89L165.75,99.2c-.39,2.54-1.69,3.79-3.62,3.79h-12.7c-2,0-2.73-1.29-2.28-4.19l10.5-67.28c.52-3.31,1.78-4.54,4-4.54ZM171.39,63h10.34c6.47-.25,10.77-4.73,11.2-12.81.27-5-3.1-8.56-8.47-8.54l-9.73.05L171.39,63Zm75.88,34.84c1.16-1,2.34-1.6,2.17-.3l-.41,3.12c-.22,1.62.43,2.49,1.95,2.49h11.28c1.9,0,2.83-.77,3.29-3.7l7-43.65c.35-2.19-.18-3.26-1.85-3.26h-12.4c-1.12,0-1.67.62-2,2.33l-.46,2.69c-.24,1.4-.88,1.64-1.48.23-2.1-5-7.47-7.22-15-7.06-17.4.36-29.14,13.57-30.39,30.5-1,13.1,8.42,23.39,20.79,23.39,9,0,13-2.68,17.51-6.78Zm-9.44-6.7c-7.49,0-12.72-6-11.63-13.3a16.2,16.2,0,0,1,15.58-13.3c7.5,0,12.72,6,11.63,13.3a16.21,16.21,0,0,1-15.58,13.3ZM294.6,52.39H283.2c-2.36,0-3.32,1.72-2.57,3.92l14.21,41.6-14,19.79c-1.17,1.65-.27,3.16,1.38,3.16h12.86a4,4,0,0,0,3.83-1.87l43.68-62.68c1.35-1.93.72-4-1.49-4H328.94c-2.09,0-2.93.82-4.12,2.56L306.59,81.35l-8.1-26.49C298,53.23,296.79,52.39,294.6,52.39Z"/><path class="cls-1" d="M388.06,27c11.51,0,22.13,6.24,20.67,21.79C407,67.22,397.07,77.49,381.44,77.53H367.8c-2,0-2.91,1.6-3.43,4.89L361.74,99.2c-.4,2.54-1.7,3.79-3.62,3.79h-12.7c-2,0-2.73-1.29-2.28-4.19l10.5-67.28c.51-3.31,1.78-4.54,4-4.54ZM367.38,63h10.34c6.47-.25,10.77-4.73,11.2-12.81.27-5-3.1-8.56-8.47-8.54l-9.74.05L367.38,63Zm75.88,34.84c1.16-1,2.34-1.6,2.17-.3l-.41,3.12c-.22,1.62.43,2.49,2,2.49h11.28c1.9,0,2.82-.77,3.29-3.7l6.95-43.65c.35-2.19-.18-3.26-1.84-3.26H454.24c-1.12,0-1.66.62-1.95,2.33l-.46,2.69c-.24,1.4-.88,1.64-1.48.23-2.11-5-7.47-7.22-15-7.06-17.41.36-29.14,13.57-30.4,30.5-1,13.1,8.42,23.39,20.79,23.39,9,0,13-2.68,17.52-6.78Zm-9.44-6.7c-7.5,0-12.72-6-11.63-13.3a16.2,16.2,0,0,1,15.58-13.3c7.49,0,12.72,6,11.63,13.3a16.21,16.21,0,0,1-15.58,13.3Zm52,12.09h-13a1.53,1.53,0,0,1-1.6-1.8l11.45-72.49a2.25,2.25,0,0,1,2.17-1.8h13a1.53,1.53,0,0,1,1.6,1.8L488,101.42A2.26,2.26,0,0,1,485.86,103.22Z"/><path class="cls-2" d="M22.72.05H56.86c9.61,0,21,.31,28.64,7,5.1,4.5,7.77,11.66,7.15,19.34C90.56,52.5,75,67.1,54.06,67.1H37.22c-2.86,0-4.76,1.9-5.57,7L27,104c-.3,1.93-1.14,3.08-2.68,3.21h-21c-2.34,0-3.17-1.78-2.56-5.65L15.84,5.72C16.44,1.88,18.54.05,22.72.05Z"/><path class="cls-3" d="M32.14,71.13l6-37.73c.53-3.32,2.34-4.89,5.94-4.89h34.1A33.35,33.35,0,0,1,91.92,31C88.5,54.21,73.49,67.1,53.84,67.1H37C34.79,67.1,33.14,68.23,32.14,71.13Z"/></svg>