<svg id="Live_type" data-name="Live type" xmlns="http://www.w3.org/2000/svg" viewBox="0 0 468 105"><defs><style>.cls-1{fill:#c1c7d0;}</style></defs><path class="cls-1" d="M51.36,45.65c9.89,0,17.68-.15,27.71-.46,1.72.16,1.58,4.42.49,5l-2.33.4c-3.63.73-5.79,1.44-5.79,2.17,0,1.16.29,2,1.23,4.4C75.53,64,79.88,73.23,83.36,80.07c3.75-8.23,6.23-15.2,8.72-21.8a18.9,18.9,0,0,0,1.42-5.55c0-.71-1.26-1.41-4-2l-2.64-.57c-1-1-1-4.4.62-5,5.18.27,8.9.42,12.84.42,4.54,0,8.61-.17,12-.45,1.41.6,1.73,3.69.49,5l-2.2.42c-5.16,1-6.24,2.44-8.76,7.7-7.17,14.52-14.35,30.2-20.89,45.29a5,5,0,0,1-3.63,1,4.9,4.9,0,0,1-3.6-1C70.53,95.9,62.35,79.24,57.65,70.16c-4,7.39-13.4,26.35-17,33.45-.93.86-2,1-3.59,1a4.89,4.89,0,0,1-3.61-1C25.89,87.56,18.19,71.2,10.54,56.41,8.33,52.28,6.76,51.69,4.09,51L1.24,50.3c-1.06-1.16-1.06-4.25.5-5,6.42.29,11.44.41,18,.41Zm-4.23,5.87A39.33,39.33,0,0,0,39.66,51c-5,0-8,.6-8,2.15a13.63,13.63,0,0,0,1.43,4.68c2.18,5,8.46,17.8,11.14,22.35,2.17-3.85,7.5-14.1,8.26-17A14.92,14.92,0,0,0,53,58.91C53,56.63,50.27,52.07,47.13,51.52Z"/><path class="cls-1" d="M127.8,68.77c-3.6,0-3.92.29-3.92,2.57,0,10.67,7.54,21,22.11,21,4.37,0,10.35-.83,14.56-7.41a3.45,3.45,0,0,1,4.06,3.28c-6.38,12.11-18,16.24-27.38,16.25-21.15,0-32.56-13.47-32.6-29,0-17.94,14.2-31.9,33.77-31.92,16.3,0,25.06,9.51,25.07,20.47,0,2.67-.75,4.68-5.63,4.69Zm10.34-6.28a13.69,13.69,0,0,0,6.41-1.28c.77-.43,1.09-1.85,1.09-3.29,0-4.68-3-7.81-8.32-7.81-6.56,0-12.21,5.73-12.21,10.25,0,2,2.17,2.16,7.22,2.13Z"/><path class="cls-1" d="M214.66,45.44c9.84,0,17.7-.16,27.71-.46,1.71.16,1.56,4.39.43,5l-2.32.4c-3.61.73-5.79,1.43-5.79,2.15,0,1.14.33,2,1.26,4.4,2.83,6.86,7.23,16.08,10.68,22.92,3.75-8.27,6.24-15.24,8.73-21.82a20.32,20.32,0,0,0,1.43-5.53c0-.74-1.28-1.43-3.94-2L250.2,50c-1-1-1-4.39.61-5,5.17.29,8.92.41,12.85.4,4.53,0,8.6-.14,12-.42,1.42.59,1.73,3.7.49,5l-2.2.46c-5.16,1-6.24,2.4-8.75,7.67-7.19,14.53-14.37,30.23-20.92,45.3-.94.86-2,1-3.62,1a4.83,4.83,0,0,1-3.59-1C233.84,95.67,225.65,79,221,69.92c-4.08,7.42-13.41,26.38-17,33.48a6.85,6.85,0,0,1-7.19,0C189.2,87.34,181.46,71,173.81,56.17c-2.22-4.11-3.77-4.68-6.43-5.39l-2.81-.7c-1.11-1.13-1.14-4.28.45-5,6.41.27,11.42.4,18,.39Zm-4.24,5.87a39.58,39.58,0,0,0-7.5-.55c-5,0-8,.56-8,2.11a14.48,14.48,0,0,0,1.46,4.69c2.17,5,8.46,17.8,11.12,22.35,2.19-3.84,7.51-14.08,8.25-16.94a15.27,15.27,0,0,0,.48-4.28C216.23,56.44,213.57,51.84,210.42,51.31Z"/><path class="cls-1" d="M268.3,75c-.17-20.35,17.51-31.63,36-31.63s35.11,10.18,35.11,30.25c0,20.81-16.71,30.64-36,30.67C284.78,104.31,268.48,94.63,268.3,75Zm22.54-3.15c0,14.92,5.23,25.9,14.29,25.88,8.89,0,11.89-9.26,11.7-22.07-.16-13.81-4.55-25.77-13.46-25.77C296.42,49.91,290.83,56.34,290.84,71.84Z"/><path class="cls-1" d="M343.12,64.52c0-5.71,0-7.42-3-9.14l-2.22-1.25a3.2,3.2,0,0,1,0-4.29c7.22-1.87,18-5.71,22.87-8.55a3.25,3.25,0,0,1,2.8,1.28c-.29,2.86-.61,4.82-.61,6.12,0,1,.32,1.42,1.56,1.71,4.23-2.45,8.74-7.13,15.33-7.15,4.25,0,8.63,3,8.63,8.38,0,6.56-5,9.27-10,9.27a9.19,9.19,0,0,1-6.12-2.55c-3.62-2.71-5-2.85-5.94-2.85-2.21,0-3,3.14-3,8.55l0,21.94c.05,10,.68,11.11,5.84,11.5l5,.42c1.24.86,1.25,4.14-.14,5-7.55-.27-13.78-.41-21.14-.41-6.44,0-13.31.16-18.49.47-1.38-.84-1.41-4.12-.17-5l3-.28c5.17-.44,5.79-1.71,5.76-11.68Z"/><path class="cls-1" d="M391,23c0-5.72,0-7.25-3.17-8.94l-2.66-1.42a3.2,3.2,0,0,1,0-4.29c6.44-1.44,15.94-4.87,24-8a3.5,3.5,0,0,1,2.66,1c-.28,5.83-.45,11.79-.45,20.79l.05,44.67c0,1.59.48,2,2.22,2a12.05,12.05,0,0,0,9.08-4l6.54-7c3-3.26,3.76-4.81,3.76-5.68s-1.57-1.29-3-1.39l-3.89-.59c-1.41-1.26-1.28-4.4.3-5l3.75,0a258.82,258.82,0,0,0,29.6-2c1.57.69,1.74,3.81.65,5l-5,1c-3,.6-6.29,2-10.5,5a82.44,82.44,0,0,0-10.48,8.27,2.75,2.75,0,0,0-.95,1.86,5.08,5.08,0,0,0,1.12,2.41c2.8,4.54,16.62,23.89,20.56,27.16,2.19,1.84,5.14,2.55,9.22,3.24l2.33.45c1.24,1,.93,4.41-.6,5-4.85-.26-10.65-.41-19.71-.41-9.27,0-14.92.18-19.3.47-1.57-.7-1.86-3.7-.61-5l2.06-.46c1.55-.29,2.48-.58,2.48-1.11s-1.43-2.86-2.67-4.57L417.23,76.07a4.43,4.43,0,0,0-3.93-2.14c-1.07,0-1.88.73-1.86,3.44v8.24c0,10,.63,11.12,6.16,11.66l2.47.31c1.26.83,1.29,4.14-.16,5-5-.27-11.57-.41-18.78-.41s-13.63.17-19.1.45c-1.42-.83-1.42-4.11-.18-5l3-.3c5.64-.55,6.28-1.71,6.27-11.7Z"/></svg>